<?xml version="1.0" encoding="UTF-8"?>
<svg width="30px" height="30px" viewBox="0 0 30 30" version="1.1" xmlns="http://www.w3.org/2000/svg" xmlns:xlink="http://www.w3.org/1999/xlink">
    <title>Combined Shape 2</title>
    <g id="Symbols" stroke="none" stroke-width="1" fill="none" fill-rule="evenodd">
        <g id="Execution-Failed" transform="translate(-15, -15)" fill="#FF6464">
            <path d="M30,15 C38.2842712,15 45,21.7157288 45,30 C45,38.2842712 38.2842712,45 30,45 C21.7157288,45 15,38.2842712 15,30 C15,21.7157288 21.7157288,15 30,15 Z M26.605387,24.7284007 C26.0816021,24.2959863 25.3049533,24.3248139 24.8148836,24.8148836 C24.2941845,25.3355827 24.2941845,26.1798026 24.8148836,26.7005017 L28.1144795,29.9996262 L24.8148836,33.300165 L24.7284007,33.3952797 C24.2959863,33.9190646 24.3248139,34.6957134 24.8148836,35.1857831 C25.3355827,35.7064821 26.1798026,35.7064821 26.7005017,35.1857831 L30.0003333,31.88548 L33.300165,35.1857831 L33.3952797,35.272266 C33.9190646,35.7046804 34.6957134,35.6758528 35.1857831,35.1857831 C35.7064821,34.665084 35.7064821,33.820864 35.1857831,33.300165 L31.8861871,29.9996262 L35.1857831,26.7005017 L35.272266,26.605387 C35.7046804,26.0816021 35.6758528,25.3049533 35.1857831,24.8148836 C34.665084,24.2941845 33.820864,24.2941845 33.300165,24.8148836 L30.0003333,28.1137724 L26.7005017,24.8148836 Z" id="Combined-Shape"></path>
        </g>
    </g>
</svg>