<?xml version="1.0" encoding="UTF-8"?>
<svg width="30px" height="30px" viewBox="0 0 30 30" version="1.1" xmlns="http://www.w3.org/2000/svg" xmlns:xlink="http://www.w3.org/1999/xlink">
    <title>Combined Shape 3</title>
    <g id="Symbols" stroke="none" stroke-width="1" fill="none" fill-rule="evenodd">
        <g id="New" transform="translate(-15, -15)" fill="#8585F6">
            <path d="M30,15 C38.2842712,15 45,21.7157288 45,30 C45,38.2842712 38.2842712,45 30,45 C21.7157288,45 15,38.2842712 15,30 C15,21.7157288 21.7157288,15 30,15 Z M30.0003333,22.667 C29.2639537,22.667 28.667,23.2639537 28.667,24.0003333 L28.6663333,28.6663333 L24.0003333,28.667 L23.8719244,28.6731036 C23.1957894,28.7377123 22.667,29.3072701 22.667,30.0003333 C22.667,30.736713 23.2639537,31.3336667 24.0003333,31.3336667 L28.6663333,31.3333333 L28.667,36.0003333 L28.6731036,36.1287422 C28.7377123,36.8048773 29.3072701,37.3336667 30.0003333,37.3336667 C30.736713,37.3336667 31.3336667,36.736713 31.3336667,36.0003333 L31.3333333,31.3333333 L36.0003333,31.3336667 L36.1287422,31.327563 C36.8048773,31.2629544 37.3336667,30.6933965 37.3336667,30.0003333 C37.3336667,29.2639537 36.736713,28.667 36.0003333,28.667 L31.3333333,28.6663333 L31.3336667,24.0003333 L31.327563,23.8719244 C31.2629544,23.1957894 30.6933965,22.667 30.0003333,22.667 Z" id="Combined-Shape"></path>
        </g>
    </g>
</svg>