<?xml version="1.0" encoding="UTF-8"?>
<svg width="30px" height="30px" viewBox="0 0 30 30" version="1.1" xmlns="http://www.w3.org/2000/svg" xmlns:xlink="http://www.w3.org/1999/xlink">
    <title>Combined Shape</title>
    <g id="Symbols" stroke="none" stroke-width="1" fill="none" fill-rule="evenodd">
        <g id="Execution-Successful" transform="translate(-15, -15)" fill="#B8FFBA">
            <path d="M30,15 C38.2842712,15 45,21.7157288 45,30 C45,38.2842712 38.2842712,45 30,45 C21.7157288,45 15,38.2842712 15,30 C15,21.7157288 21.7157288,15 30,15 Z M37.1637398,22.2673405 C36.4829607,21.9007671 35.6339138,22.1554812 35.2673405,22.8362602 L29.159427,34.179528 L24.4899495,29.5100505 C23.9432155,28.9633165 23.0567845,28.9633165 22.5100505,29.5100505 C21.9633165,30.0567845 21.9633165,30.9432155 22.5100505,31.4899495 L28.4962142,37.4761132 C28.4989236,37.4792397 28.5018412,37.4822117 28.5100505,37.4899495 C28.5163371,37.4962361 28.5226686,37.5024504 28.5296122,37.5076306 C28.5546363,37.5337048 28.5818875,37.5579545 28.6106241,37.5808543 C28.6281645,37.5958032 28.6461676,37.6099213 28.6652234,37.6219652 C28.6822351,37.6367567 28.700931,37.6499437 28.7202897,37.6624488 C28.7504811,37.6833933 28.7815386,37.702527 28.8137031,37.719003 C28.8206601,37.7241653 28.828432,37.7284443 28.8390806,37.7339993 C28.8763071,37.7545478 28.9144558,37.7727866 28.9534847,37.7883469 C28.9578724,37.7908899 28.9624085,37.7927918 28.9669618,37.794602 C29.0013973,37.8091102 29.0363886,37.8218741 29.0720406,37.8320671 C29.0811766,37.836191 29.0905208,37.8390951 29.0998908,37.8418085 C29.1176293,37.8471611 29.1354711,37.8520796 29.1536878,37.8551028 C29.3042106,37.8953963 29.4580273,37.90784 29.6087741,37.8948066 C29.6176793,37.8951038 29.6265331,37.8943333 29.6353745,37.8934225 C29.6581298,37.8913531 29.680792,37.8885696 29.7030769,37.8836527 C29.7258351,37.8819586 29.7483413,37.8781129 29.7707318,37.8735563 L29.7966077,37.8672385 C29.9447425,37.8364054 30.0884965,37.7802876 30.2210931,37.6984409 C30.2376724,37.6903109 30.2533483,37.6804731 30.2688008,37.670249 C30.2769961,37.6649575 30.285112,37.6594907 30.2926783,37.652915 C30.3238976,37.6329074 30.3537453,37.6106273 30.3825591,37.5868364 C30.3864006,37.583794 30.3901987,37.5806689 30.3936704,37.5769726 C30.4265824,37.5508534 30.4578814,37.5224218 30.4899495,37.4899495 C30.4962361,37.4836629 30.5024504,37.4773314 30.5076306,37.4703878 C30.5337048,37.4453637 30.5579545,37.4181125 30.5808542,37.3893759 C30.5958032,37.3718355 30.6099213,37.3538324 30.6219652,37.3347765 C30.6367567,37.3177649 30.6499437,37.299069 30.6624488,37.2797103 C30.6833935,37.2495185 30.7025273,37.2184609 30.7190035,37.186296 C30.7241657,37.1793392 30.7284445,37.1715677 30.7326595,37.1637398 C30.7382991,37.1539695 30.7402396,37.1502847 30.7419365,37.1465111 L37.7326595,24.1637398 C38.0992329,23.4829607 37.8445188,22.6339138 37.1637398,22.2673405 Z" id="Combined-Shape"></path>
        </g>
    </g>
</svg>