<?xml version="1.0" encoding="UTF-8"?>
<svg width="45px" height="45px" viewBox="0 0 45 45" version="1.1" xmlns="http://www.w3.org/2000/svg" xmlns:xlink="http://www.w3.org/1999/xlink">
    <title>Group</title>
    <g id="Symbols" stroke="none" stroke-width="1" fill="none" fill-rule="evenodd">
        <g id="Group" transform="translate(-1, -2)">
            <path d="M25.2888544,3.57770876 L45.5527864,44.1055728 C46.0467649,45.0935298 45.6463162,46.2948759 44.6583592,46.7888544 C44.3806483,46.9277098 44.0744222,47 43.763932,47 L3.23606798,47 C2.13149848,47 1.23606798,46.1045695 1.23606798,45 C1.23606798,44.6895098 1.30835816,44.3832837 1.4472136,44.1055728 L21.7111456,3.57770876 C22.2051241,2.58975177 23.4064702,2.18930308 24.3944272,2.68328157 C24.781482,2.87680898 25.095327,3.19065396 25.2888544,3.57770876 Z" id="Triangle" fill="#EFB41B"></path>
            <path d="M26,18.8634351 L26,30.5969556 C26,31.7751114 24.8807119,32.7301954 23.5,32.7301954 C22.1192881,32.7301954 21,31.7751114 21,30.5969556 L21,18.8634351 C21,17.6852793 22.1192881,16.7301954 23.5,16.7301954 C24.8807119,16.7301954 26,17.6852793 26,18.8634351 Z" id="Line" fill="#000000" fill-rule="nonzero"></path>
            <circle id="Oval" fill="#000000" cx="23.5" cy="38.5" r="2.5"></circle>
        </g>
    </g>
</svg>