<?xml version="1.0" encoding="UTF-8" standalone="no"?>
<!DOCTYPE svg PUBLIC "-//W3C//DTD SVG 1.1//EN" "http://www.w3.org/Graphics/SVG/1.1/DTD/svg11.dtd">
<svg width="100%" height="100%" viewBox="0 0 493 213" version="1.1" xmlns="http://www.w3.org/2000/svg" xmlns:xlink="http://www.w3.org/1999/xlink" xml:space="preserve" xmlns:serif="http://www.serif.com/" style="fill-rule:evenodd;clip-rule:evenodd;stroke-linecap:round;stroke-linejoin:round;stroke-miterlimit:1.5;">
    <g transform="matrix(1,0,0,1,-1323.960631,-1188.616056)">
        <g transform="matrix(1.234694,0,0,1,1047.851787,188.782722)">
            <path d="M423,1106C423,1106 441.688,1004 619,1004" style="fill:none;stroke:black;stroke-width:7.42px;"/>
        </g>
        <g transform="matrix(1.234694,0,0,1,805.851787,290.782722)">
            <path d="M423,1106C423,1106 441.688,1004 619,1004" style="fill:none;stroke:black;stroke-width:7.42px;"/>
        </g>
        <g transform="matrix(1.234694,-0,-0,-1,1047.851787,2400.782722)">
            <path d="M423,1106C423,1106 441.688,1004 619,1004" style="fill:none;stroke:black;stroke-width:7.42px;"/>
        </g>
        <g transform="matrix(1.234694,-0,-0,-1,805.851787,2298.782722)">
            <path d="M423,1106C423,1106 441.688,1004 619,1004" style="fill:none;stroke:black;stroke-width:7.42px;"/>
        </g>
    </g>
</svg>
