<?xml version="1.0" encoding="UTF-8"?>
<svg width="30px" height="30px" viewBox="0 0 30 30" version="1.1" xmlns="http://www.w3.org/2000/svg" xmlns:xlink="http://www.w3.org/1999/xlink">
    <title>Combined Shape</title>
    <g id="Brespi-Interface" stroke="none" stroke-width="1" fill="none" fill-rule="evenodd">
        <g id="$PipelineOverview" transform="translate(-852, -659)" fill="#D4D4D4">
            <path d="M867,659 C875.284271,659 882,665.715729 882,674 C882,682.284271 875.284271,689 867,689 C858.715729,689 852,682.284271 852,674 C852,665.715729 858.715729,659 867,659 Z M863.605387,668.728401 C863.081602,668.295986 862.304953,668.324814 861.814884,668.814884 C861.294185,669.335583 861.294185,670.179803 861.814884,670.700502 L865.11448,673.999626 L861.814884,677.300165 L861.728401,677.39528 C861.295986,677.919065 861.324814,678.695713 861.814884,679.185783 C862.335583,679.706482 863.179803,679.706482 863.700502,679.185783 L867.000333,675.88548 L870.300165,679.185783 L870.39528,679.272266 C870.919065,679.70468 871.695713,679.675853 872.185783,679.185783 C872.706482,678.665084 872.706482,677.820864 872.185783,677.300165 L868.886187,673.999626 L872.185783,670.700502 L872.272266,670.605387 C872.70468,670.081602 872.675853,669.304953 872.185783,668.814884 C871.665084,668.294185 870.820864,668.294185 870.300165,668.814884 L867.000333,672.113772 L863.700502,668.814884 Z" id="Combined-Shape"></path>
        </g>
    </g>
</svg>