<?xml version="1.0" encoding="UTF-8"?>
<svg width="30px" height="29px" viewBox="0 0 30 29" version="1.1" xmlns="http://www.w3.org/2000/svg" xmlns:xlink="http://www.w3.org/1999/xlink">
    <title>􀈔</title>
    <g id="Brespi-Interface" stroke="none" stroke-width="1" fill="none" fill-rule="evenodd">
        <g id="$Pipeline-:-Editing-Step" transform="translate(-671, -736)" fill="#FF6464">
            <g id="􀈔" transform="translate(671.748, 735.998)">
                <path d="M14.5,29 C16.480719,29 18.3453431,28.620915 20.0938725,27.8627451 C21.842402,27.1045752 23.3848039,26.0573529 24.7210784,24.7210784 C26.0573529,23.3848039 27.1045752,21.842402 27.8627451,20.0938725 C28.620915,18.3453431 29,16.480719 29,14.5 C29,12.519281 28.620915,10.6546569 27.8627451,8.90612745 C27.1045752,7.15759804 26.0573529,5.61519608 24.7210784,4.27892157 C23.3848039,2.94264706 21.8400327,1.89542484 20.0867647,1.1372549 C18.3334967,0.379084967 16.4665033,0 14.4857843,0 C12.5050654,0 10.6404412,0.379084967 8.89191176,1.1372549 C7.14338235,1.89542484 5.60334967,2.94264706 4.27181373,4.27892157 C2.94027778,5.61519608 1.89542484,7.15759804 1.1372549,8.90612745 C0.379084967,10.6546569 0,12.519281 0,14.5 C0,16.480719 0.379084967,18.3453431 1.1372549,20.0938725 C1.89542484,21.842402 2.94264706,23.3848039 4.27892157,24.7210784 C5.61519608,26.0573529 7.15759804,27.1045752 8.90612745,27.8627451 C10.6546569,28.620915 12.519281,29 14.5,29 Z M10.7044118,23.1431373 C10.2021242,23.1431373 9.81119281,23.0104575 9.53161765,22.745098 C9.25204248,22.4797386 9.10277778,22.095915 9.08382353,21.5936275 L8.58627451,10.0078431 L7.37794118,10.0078431 C7.20735294,10.0078431 7.0628268,9.94861111 6.94436275,9.83014706 C6.82589869,9.71168301 6.76666667,9.56715686 6.76666667,9.39656863 C6.76666667,9.21650327 6.82589869,9.06486928 6.94436275,8.94166667 C7.0628268,8.81846405 7.20735294,8.75686275 7.37794118,8.75686275 L10.9034314,8.75686275 L10.9034314,7.57696078 C10.9034314,6.97042484 11.0906046,6.4870915 11.464951,6.12696078 C11.8392974,5.76683007 12.3486928,5.58676471 12.9931373,5.58676471 L15.95,5.58676471 C16.5944444,5.58676471 17.1062092,5.76683007 17.4852941,6.12696078 C17.8643791,6.4870915 18.0539216,6.97042484 18.0539216,7.57696078 L18.0539216,8.75686275 L21.5509804,8.75686275 C21.7310458,8.75686275 21.8826797,8.81846405 22.0058824,8.94166667 C22.129085,9.06486928 22.1906863,9.21650327 22.1906863,9.39656863 C22.1812092,9.56715686 22.1172386,9.71168301 21.9987745,9.83014706 C21.8803105,9.94861111 21.7310458,10.0078431 21.5509804,10.0078431 L20.3995098,10.0078431 L19.9019608,21.5936275 C19.8830065,22.095915 19.7290033,22.4797386 19.439951,22.745098 C19.1508987,23.0104575 18.7647059,23.1431373 18.2813725,23.1431373 L10.7044118,23.1431373 Z M11.9696078,20.8686275 C12.1212418,20.8686275 12.2444444,20.8212418 12.3392157,20.7264706 C12.4339869,20.6316993 12.476634,20.5132353 12.4671569,20.3710784 L12.1828431,11.8132353 C12.1828431,11.4720588 12.0122549,11.3014706 11.6710784,11.3014706 C11.3014706,11.3014706 11.1214052,11.4720588 11.1308824,11.8132353 L11.4294118,20.3710784 C11.4294118,20.7027778 11.6094771,20.8686275 11.9696078,20.8686275 Z M14.4573529,20.8686275 C14.8269608,20.8686275 15.0117647,20.7027778 15.0117647,20.3710784 L15.0117647,11.8132353 C15.0117647,11.4720588 14.8269608,11.3014706 14.4573529,11.3014706 C14.1066993,11.3014706 13.9313725,11.4720588 13.9313725,11.8132353 L13.9313725,20.3710784 C13.9313725,20.7027778 14.1066993,20.8686275 14.4573529,20.8686275 Z M16.9593137,20.8686275 C17.3099673,20.8686275 17.4900327,20.7027778 17.4995098,20.3710784 L17.7838235,11.8132353 C17.7933007,11.4720588 17.6227124,11.3014706 17.2720588,11.3014706 C16.9119281,11.3014706 16.7318627,11.4720588 16.7318627,11.8132353 L16.447549,20.3710784 C16.447549,20.5132353 16.4925654,20.6316993 16.582598,20.7264706 C16.6726307,20.8212418 16.7982026,20.8686275 16.9593137,20.8686275 Z M12.3960784,8.75686275 L16.5328431,8.75686275 L16.5328431,7.64803922 C16.5328431,7.45849673 16.4712418,7.30686275 16.3480392,7.19313725 C16.2248366,7.07941176 16.0637255,7.02254902 15.8647059,7.02254902 L13.0642157,7.02254902 C12.8651961,7.02254902 12.704085,7.07941176 12.5808824,7.19313725 C12.4576797,7.30686275 12.3960784,7.45849673 12.3960784,7.64803922 L12.3960784,8.75686275 Z" id="Shape" fill-rule="nonzero"></path>
            </g>
        </g>
    </g>
</svg>
